# xmcd
#
# Track frame offsets: 
#        150
#        14971
#        48195
#        64695
#        79110
#        93348
#        107833
#        120397
#        138788
#        164783
#        179697
#        206703
#        219897
#        225509
#        245105
#        266610
#        277242
#
# Disc length: 3965 seconds
#
# Revision: 5
# Processed by: cddbd v1.5.2PL0 Copyright (c) Steve Scherf et al.
# Submitted via: ExactAudioCopy v0.90b4
#
DISCID=fd0f7b11
DTITLE=נושאי המגבעת - נושאי המגבעת ואני
DYEAR=1996
DGENRE=
TTITLE0=נושאי המגבעת ואני
TTITLE1=קול של אלוהים אחר (Live)
TTITLE2=אני טקסט פוליטי?
TTITLE3=ביקור בהר
TTITLE4=מתנה לחג
TTITLE5=האלוהים שלי עייף
TTITLE6="רוכסן"
TTITLE7=נושאי המגבעת
TTITLE8=רדיו
TTITLE9=Live in Beit shemesh
TTITLE10=יום הולדת
TTITLE11=רוכסן
TTITLE12=חומר חדש
TTITLE13=המוהלת
TTITLE14=קול של אלוהים אחר
TTITLE15=יש לי חברה
TTITLE16=שיר כחול
EXTD=
EXTT0=
EXTT1=
EXTT2=
EXTT3=
EXTT4=
EXTT5=
EXTT6=
EXTT7=
EXTT8=
EXTT9=
EXTT10=
EXTT11=
EXTT12=
EXTT13=
EXTT14=
EXTT15=
EXTT16=
PLAYORDER=
